<svg width="16" height="16" viewBox="0 0 16 16" fill="none" xmlns="http://www.w3.org/2000/svg">
<path fill-rule="evenodd" clip-rule="evenodd" d="M3.44551 1.26831C3.64579 1.40282 3.81238 1.58166 3.93233 1.79097H9.06689C9.18663 1.58144 9.35307 1.40233 9.55329 1.26757C9.75351 1.13281 9.98211 1.04601 10.2213 1.01393C10.4605 0.981852 10.7039 1.00535 10.9326 1.0826C11.1613 1.15985 11.369 1.28877 11.5398 1.45934C11.7105 1.62992 11.8396 1.83755 11.917 2.06611C11.9944 2.29468 12.0181 2.53801 11.9862 2.77721C11.9543 3.01641 11.8677 3.24503 11.733 3.44531C11.5984 3.64559 11.4194 3.81214 11.2099 3.93201V4.93032C10.9341 4.93105 10.6633 5.00441 10.4249 5.14301C10.1865 5.00441 9.91573 4.93105 9.63993 4.93032V3.93358C9.40264 3.79581 9.2056 3.59827 9.06846 3.36064H4.47004L6.35007 5.23955C6.28432 5.28828 6.22269 5.34192 6.16565 5.3999H5.3999V6.50986L3.36007 4.47041V9.06642C3.59737 9.20419 3.7944 9.40173 3.93154 9.63936H5.3999V11.209H3.93311C3.81337 11.4186 3.64693 11.5977 3.44671 11.7324C3.24649 11.8672 3.01789 11.954 2.77867 11.9861C2.53945 12.0181 2.29606 11.9946 2.0674 11.9174C1.83874 11.8402 1.63097 11.7112 1.46024 11.5407C1.28951 11.3701 1.16041 11.1624 1.08298 10.9339C1.00555 10.7053 0.981871 10.462 1.01378 10.2228C1.04569 9.98359 1.13234 9.75497 1.26698 9.55469C1.40162 9.35441 1.58063 9.18786 1.79011 9.06799V3.93358C1.58073 3.81373 1.40179 3.64724 1.26718 3.44703C1.13258 3.24683 1.04595 3.01831 1.01399 2.77921C0.982045 2.5401 1.00564 2.29685 1.08296 2.06835C1.16027 1.83984 1.28922 1.63222 1.4598 1.46162C1.63037 1.29101 1.83798 1.16201 2.0665 1.08462C2.29502 1.00724 2.5383 0.983557 2.77746 1.01541C3.01662 1.04727 3.24522 1.13381 3.44551 1.26831Z" fill="#FC7F7F" fill-opacity="0.6"/>
<path d="M6.93233 4.79097C6.81238 4.58166 6.64579 4.40282 6.44551 4.26831C6.24522 4.13381 6.01662 4.04727 5.77746 4.01541C5.5383 3.98356 5.29502 4.00724 5.0665 4.08462C4.83798 4.16201 4.63037 4.29101 4.4598 4.46162C4.28922 4.63222 4.16027 4.83984 4.08296 5.06835C4.00564 5.29685 3.98204 5.5401 4.01399 5.77921C4.04595 6.01831 4.13258 6.24683 4.26718 6.44703C4.40179 6.64724 4.58073 6.81373 4.79011 6.93358V12.068C4.58063 12.1879 4.40162 12.3544 4.26698 12.5547C4.13234 12.755 4.04569 12.9836 4.01378 13.2228C3.98187 13.462 4.00555 13.7053 4.08298 13.9339C4.16041 14.1624 4.28951 14.3701 4.46024 14.5407C4.63097 14.7112 4.83874 14.8402 5.0674 14.9174C5.29606 14.9947 5.53945 15.0181 5.77867 14.9861C6.01789 14.954 6.24649 14.8672 6.44671 14.7324C6.64693 14.5977 6.81337 14.4186 6.93311 14.209H8.71502V12.6394H6.93154C6.7944 12.4017 6.59737 12.2042 6.36007 12.0664V7.47041L8.71502 9.82492V9.5C8.71511 9.25492 8.77259 9.01327 8.88287 8.79439C8.99314 8.57551 9.15315 8.38549 9.35007 8.23955L7.47004 6.36064H12.0685C12.2056 6.59827 12.4026 6.79581 12.6399 6.93358V7.93032C12.9157 7.93105 13.1865 8.00441 13.4249 8.14301C13.6633 8.00441 13.9341 7.93105 14.2099 7.93032V6.93201C14.4194 6.81214 14.5984 6.64559 14.733 6.44531C14.8677 6.24503 14.9543 6.01641 14.9862 5.77721C15.0181 5.53801 14.9944 5.29468 14.917 5.06611C14.8396 4.83755 14.7105 4.62992 14.5398 4.45934C14.369 4.28877 14.1613 4.15985 13.9326 4.0826C13.7039 4.00535 13.4605 3.98185 13.2213 4.01393C12.9821 4.04601 12.7535 4.13281 12.5533 4.26757C12.3531 4.40233 12.1866 4.58144 12.0669 4.79097H6.93233ZM10.285 9.5V14.9939H14.2099C14.4181 14.9939 14.6177 14.9112 14.765 14.764C14.9122 14.6168 14.9949 14.4172 14.9949 14.209V10.2848C14.9949 10.0767 14.9122 9.87706 14.765 9.72987C14.6177 9.58269 14.4181 9.5 14.2099 9.5V12.6394L13.4249 11.8545L12.6399 12.6394V9.5H10.285Z" fill="#FC7F7F"/>
</svg>
